<svg width="576" height="350" viewBox="0 0 576 350" fill="none" xmlns="http://www.w3.org/2000/svg">
<rect width="576" height="350" rx="18" fill="#111113"/>
<circle cx="552.9" cy="17.7469" r="9" transform="rotate(22.3576 552.9 17.7469)" fill="#454545"/>
<rect x="553.884" y="10.5826" width="3.62963" height="14" transform="rotate(22.3576 553.884 10.5826)" fill="#C6C6C6"/>
<rect x="545.736" y="16.7627" width="3.62963" height="14" transform="rotate(-67.6424 545.736 16.7627)" fill="#C6C6C6"/>
<circle cx="22.5347" cy="18.1429" r="9" transform="rotate(-10.8613 22.5347 18.1429)" fill="#454545"/>
<rect x="19.4331" y="11.6101" width="3.62963" height="14" transform="rotate(-10.8613 19.4331 11.6101)" fill="#C6C6C6"/>
<rect x="16.0017" y="21.2443" width="3.62963" height="14" transform="rotate(-100.861 16.0017 21.2443)" fill="#C6C6C6"/>
<circle cx="24.6422" cy="331.642" r="9" transform="rotate(38.3488 24.6422 331.642)" fill="#454545"/>
<rect x="27.562" y="325.027" width="3.62963" height="14" transform="rotate(38.3488 27.562 325.027)" fill="#C6C6C6"/>
<rect x="18.0269" y="328.723" width="3.62963" height="14" transform="rotate(-51.6512 18.0269 328.723)" fill="#C6C6C6"/>
<circle cx="552.762" cy="331.863" r="9" transform="rotate(-22.5384 552.762 331.863)" fill="#454545"/>
<rect x="548.403" y="326.093" width="3.62963" height="14" transform="rotate(-22.5384 548.403 326.093)" fill="#C6C6C6"/>
<rect x="546.993" y="336.222" width="3.62963" height="14" transform="rotate(-112.538 546.993 336.222)" fill="#C6C6C6"/>
<rect x="71.5" y="61.5" width="153" height="71" fill="#383838" stroke="#D2D2D2"/>
<path d="M99.7548 91.2277C100.762 91.2277 101.492 91.4025 101.945 91.752C102.418 92.1016 102.654 92.6568 102.654 93.4176C102.654 94.1373 102.438 94.6822 102.006 95.0523C101.575 95.4019 100.927 95.5766 100.063 95.5766H87.5716V105.878C87.5716 109.251 88.0034 111.471 88.867 112.541C89.7512 113.61 91.2523 114.145 93.3702 114.145C95.2414 114.145 97.4827 113.6 100.094 112.51C102.706 111.42 104.32 110.875 104.937 110.875C105.512 110.875 105.996 111.081 106.386 111.492C106.797 111.903 107.003 112.407 107.003 113.003C107.003 113.682 106.746 114.278 106.232 114.792C105.739 115.286 104.885 115.769 103.672 116.242C101.657 117.044 99.8371 117.63 98.2127 118C96.6088 118.37 95.0974 118.555 93.6786 118.555C91.2728 118.555 89.2474 118.175 87.6024 117.414C85.978 116.633 84.7648 115.481 83.9629 113.959C83.5516 113.24 83.2535 112.386 83.0684 111.399C82.9039 110.412 82.8217 108.891 82.8217 106.835V105.878V95.5766H77.5782C76.7146 95.5766 76.0874 95.4121 75.6968 95.0831C75.3061 94.7336 75.1107 94.1784 75.1107 93.4176C75.1107 92.5745 75.378 91.9988 75.9127 91.6903C76.4473 91.3819 77.5885 91.2277 79.3363 91.2277H82.8217V84.9047V83.27C82.8217 82.3858 83.0067 81.7381 83.3768 81.3269C83.7675 80.895 84.3638 80.6791 85.1658 80.6791C86.0705 80.6791 86.6977 80.9362 87.0472 81.4502C87.3968 81.9643 87.5716 83.1363 87.5716 84.9664V91.2277H99.7548ZM122.918 102.208H135.534L128.902 85.8609L122.918 102.208ZM124.491 85.8609H119.988C118.734 85.8609 117.85 85.6964 117.336 85.3674C116.842 85.0178 116.595 84.4421 116.595 83.6401C116.595 82.7971 116.811 82.2213 117.243 81.9129C117.696 81.5839 118.909 81.4194 120.883 81.4194H129.673C130.804 81.4194 131.565 81.5736 131.956 81.882C132.367 82.1699 132.737 82.7148 133.066 83.5168L145.126 113.651H145.65C146.761 113.651 147.521 113.805 147.933 114.114C148.344 114.422 148.55 114.977 148.55 115.779C148.55 116.622 148.354 117.208 147.964 117.537C147.573 117.846 146.843 118 145.774 118H137.384C135.821 118 134.814 117.846 134.361 117.537C133.93 117.208 133.714 116.622 133.714 115.779C133.714 114.998 133.95 114.453 134.423 114.145C134.917 113.816 135.832 113.651 137.168 113.651H140.037L137.045 106.31H121.376L118.724 113.651H121.716C123.073 113.651 123.998 113.816 124.491 114.145C124.985 114.453 125.232 114.998 125.232 115.779C125.232 116.622 125.006 117.208 124.553 117.537C124.121 117.846 123.155 118 121.654 118H113.542C112.226 118 111.352 117.846 110.92 117.537C110.488 117.208 110.273 116.622 110.273 115.779C110.273 114.977 110.488 114.422 110.92 114.114C111.352 113.805 112.185 113.651 113.419 113.651H114.005L124.491 85.8609ZM162.028 85.8609V100.172H167.796C171.024 100.172 173.44 99.576 175.044 98.3834C176.648 97.1908 177.45 95.3916 177.45 92.9858C177.45 90.6211 176.638 88.8424 175.013 87.6498C173.41 86.4572 171.004 85.8609 167.796 85.8609H162.028ZM168.475 113.651C169.482 113.651 170.212 113.826 170.664 114.175C171.117 114.504 171.343 115.039 171.343 115.779C171.343 116.602 171.127 117.178 170.695 117.507C170.264 117.836 169.441 118 168.228 118H153.145C152.446 118 151.912 117.815 151.541 117.445C151.171 117.054 150.986 116.499 150.986 115.779C150.986 115.06 151.161 114.525 151.511 114.175C151.881 113.826 152.446 113.651 153.207 113.651H157.186V85.8609H155.027C153.217 85.8609 152.086 85.7067 151.634 85.3982C151.202 85.0692 150.986 84.4832 150.986 83.6401C150.986 82.9204 151.171 82.3755 151.541 82.0054C151.912 81.6147 152.446 81.4194 153.145 81.4194H167.426C172.423 81.4194 176.216 82.3858 178.807 84.3187C181.398 86.2516 182.694 89.0995 182.694 92.8624C182.694 96.6253 181.408 99.4629 178.838 101.375C176.268 103.288 172.464 104.244 167.426 104.244H162.028V113.651H168.475ZM191.947 118H190.497C189.757 118 189.191 117.815 188.801 117.445C188.43 117.075 188.245 116.52 188.245 115.779C188.245 114.957 188.461 114.402 188.893 114.114C189.345 113.805 190.363 113.651 191.947 113.651H193.921V85.8609H191.947C190.404 85.8609 189.397 85.7067 188.924 85.3982C188.472 85.0692 188.245 84.4832 188.245 83.6401C188.245 82.8793 188.43 82.3241 188.801 81.9746C189.191 81.6044 189.777 81.4194 190.559 81.4194H191.947H217.424C218.123 81.4194 218.647 81.6353 218.997 82.0671C219.367 82.4784 219.552 83.0849 219.552 83.8869V91.166C219.552 92.2352 219.398 92.9755 219.089 93.3867C218.781 93.798 218.225 94.0036 217.424 94.0036C216.58 94.0036 215.994 93.7774 215.665 93.325C215.357 92.8727 215.203 91.8548 215.203 90.2715V85.8609H198.794V96.2552H206.875V94.6205C206.875 93.5101 207.019 92.739 207.307 92.3072C207.615 91.8754 208.14 91.6595 208.88 91.6595C209.599 91.6595 210.093 91.896 210.36 92.3689C210.648 92.8213 210.792 93.8083 210.792 95.3299V101.067C210.792 102.609 210.648 103.596 210.36 104.028C210.072 104.46 209.558 104.676 208.818 104.676C208.078 104.676 207.564 104.429 207.276 103.935C207.009 103.442 206.875 102.486 206.875 101.067V99.9873H198.794V113.651H215.203V108.654C215.203 107.071 215.357 106.053 215.665 105.601C215.994 105.148 216.58 104.922 217.424 104.922C218.205 104.922 218.75 105.138 219.058 105.57C219.387 105.981 219.552 106.773 219.552 107.945V115.718C219.552 116.458 219.367 117.023 218.997 117.414C218.626 117.805 218.102 118 217.424 118H191.947Z" fill="#D23447"/>
<rect x="526" y="79" width="17" height="92" rx="7" fill="#D9D9D9"/>
<rect x="34" y="79" width="17" height="92" rx="7" fill="#D9D9D9"/>
<rect x="300.5" y="74.5" width="46" height="46" rx="7.5" fill="#D9D9D9" stroke="white"/>
<circle cx="324" cy="98" r="13.5" fill="#373737" stroke="white"/>
<rect x="379.5" y="74.5" width="46" height="46" rx="7.5" fill="#D9D9D9" stroke="white"/>
<circle cx="403" cy="98" r="13.5" fill="#373737" stroke="white"/>
<rect x="458.5" y="74.5" width="46" height="46" rx="7.5" fill="#D9D9D9" stroke="white"/>
<circle cx="482" cy="97" r="13.5" fill="#373737" stroke="white"/>
<circle cx="68" cy="208" r="13.5" fill="#373737" stroke="white"/>
<circle cx="68" cy="185" r="6.5" fill="#D23447" stroke="white"/>
<circle cx="130" cy="185" r="6.5" fill="#D23447" stroke="white"/>
<circle cx="130" cy="208" r="13.5" fill="#373737" stroke="white"/>
<circle cx="378" cy="185" r="6.5" fill="#D23447" stroke="white"/>
<circle cx="378" cy="208" r="13.5" fill="#373737" stroke="white"/>
<circle cx="316" cy="185" r="6.5" fill="#D23447" stroke="white"/>
<circle cx="316" cy="208" r="13.5" fill="#373737" stroke="white"/>
<circle cx="192" cy="185" r="6.5" fill="#D23447" stroke="white"/>
<circle cx="192" cy="208" r="13.5" fill="#373737" stroke="white"/>
<circle cx="508" cy="185" r="6.5" fill="#D23447" stroke="white"/>
<circle cx="508" cy="208" r="13.5" fill="#373737" stroke="white"/>
<circle cx="254" cy="185" r="6.5" fill="#D23447" stroke="white"/>
<circle cx="254" cy="208" r="13.5" fill="#373737" stroke="white"/>
<rect x="58" y="243" width="460" height="63" fill="white"/>
<path d="M75.47 44.27C74.71 44.27 74.13 44.06 73.73 43.64C73.33 43.22 73.13 42.63 73.13 41.87V24.95C73.13 24.19 73.33 23.61 73.73 23.21C74.13 22.79 74.71 22.58 75.47 22.58C76.21 22.58 76.78 22.79 77.18 23.21C77.58 23.61 77.78 24.19 77.78 24.95V32.06H77.84L85.82 23.72C86.16 23.36 86.51 23.09 86.87 22.91C87.25 22.71 87.68 22.61 88.16 22.61C88.86 22.61 89.36 22.79 89.66 23.15C89.98 23.51 90.12 23.93 90.08 24.41C90.04 24.89 89.82 25.34 89.42 25.76L81.41 33.95L81.44 31.94L89.84 40.91C90.3 41.41 90.53 41.92 90.53 42.44C90.55 42.96 90.38 43.4 90.02 43.76C89.68 44.1 89.17 44.27 88.49 44.27C87.91 44.27 87.44 44.15 87.08 43.91C86.74 43.67 86.36 43.32 85.94 42.86L77.84 34.34H77.78V41.87C77.78 42.63 77.58 43.22 77.18 43.64C76.8 44.06 76.23 44.27 75.47 44.27ZM102.774 44.33C100.694 44.33 98.864 43.88 97.284 42.98C95.724 42.06 94.504 40.78 93.624 39.14C92.764 37.5 92.334 35.59 92.334 33.41C92.334 31.75 92.574 30.26 93.054 28.94C93.554 27.6 94.264 26.46 95.184 25.52C96.104 24.56 97.204 23.82 98.484 23.3C99.784 22.78 101.214 22.52 102.774 22.52C104.894 22.52 106.734 22.97 108.294 23.87C109.854 24.77 111.064 26.04 111.924 27.68C112.804 29.3 113.244 31.2 113.244 33.38C113.244 35.04 112.994 36.54 112.494 37.88C111.994 39.22 111.284 40.37 110.364 41.33C109.444 42.29 108.344 43.03 107.064 43.55C105.784 44.07 104.354 44.33 102.774 44.33ZM102.774 40.37C103.954 40.37 104.954 40.1 105.774 39.56C106.614 39 107.254 38.2 107.694 37.16C108.154 36.1 108.384 34.85 108.384 33.41C108.384 31.21 107.894 29.51 106.914 28.31C105.934 27.09 104.554 26.48 102.774 26.48C101.614 26.48 100.614 26.75 99.774 27.29C98.934 27.83 98.294 28.62 97.854 29.66C97.414 30.7 97.194 31.95 97.194 33.41C97.194 35.59 97.684 37.3 98.664 38.54C99.644 39.76 101.014 40.37 102.774 40.37ZM119.181 44.27C118.421 44.27 117.841 44.06 117.441 43.64C117.041 43.22 116.841 42.63 116.841 41.87V25.22C116.841 24.44 117.041 23.85 117.441 23.45C117.861 23.05 118.451 22.85 119.211 22.85H126.501C128.861 22.85 130.681 23.42 131.961 24.56C133.241 25.7 133.881 27.29 133.881 29.33C133.881 30.65 133.591 31.79 133.011 32.75C132.431 33.71 131.591 34.45 130.491 34.97C129.411 35.49 128.081 35.75 126.501 35.75L126.741 35.24H127.971C128.811 35.24 129.541 35.45 130.161 35.87C130.801 36.27 131.351 36.89 131.811 37.73L133.671 41.18C133.951 41.68 134.081 42.17 134.061 42.65C134.041 43.13 133.861 43.52 133.521 43.82C133.181 44.12 132.681 44.27 132.021 44.27C131.361 44.27 130.821 44.13 130.401 43.85C130.001 43.57 129.641 43.14 129.321 42.56L126.441 37.25C126.141 36.69 125.771 36.31 125.331 36.11C124.911 35.91 124.391 35.81 123.771 35.81H121.491V41.87C121.491 42.63 121.291 43.22 120.891 43.64C120.511 44.06 119.941 44.27 119.181 44.27ZM121.491 32.45H125.661C126.901 32.45 127.831 32.2 128.451 31.7C129.091 31.2 129.411 30.45 129.411 29.45C129.411 28.47 129.091 27.73 128.451 27.23C127.831 26.73 126.901 26.48 125.661 26.48H121.491V32.45ZM148.053 44.33C145.673 44.33 143.653 43.88 141.993 42.98C140.353 42.08 139.103 40.82 138.243 39.2C137.383 37.58 136.953 35.68 136.953 33.5C136.953 31.82 137.203 30.31 137.703 28.97C138.223 27.61 138.963 26.46 139.923 25.52C140.903 24.56 142.083 23.82 143.463 23.3C144.863 22.78 146.443 22.52 148.203 22.52C149.283 22.52 150.363 22.64 151.443 22.88C152.523 23.12 153.563 23.52 154.563 24.08C154.983 24.32 155.263 24.63 155.403 25.01C155.563 25.37 155.603 25.76 155.523 26.18C155.463 26.58 155.303 26.94 155.043 27.26C154.803 27.56 154.483 27.76 154.083 27.86C153.703 27.94 153.263 27.86 152.763 27.62C152.103 27.26 151.403 27 150.663 26.84C149.923 26.66 149.113 26.57 148.233 26.57C146.813 26.57 145.623 26.84 144.663 27.38C143.703 27.9 142.983 28.68 142.503 29.72C142.043 30.74 141.813 32 141.813 33.5C141.813 35.76 142.353 37.47 143.433 38.63C144.533 39.79 146.153 40.37 148.293 40.37C149.013 40.37 149.753 40.3 150.513 40.16C151.273 40.02 152.023 39.82 152.763 39.56L151.893 41.45V35.69H149.193C148.593 35.69 148.133 35.54 147.813 35.24C147.493 34.94 147.333 34.53 147.333 34.01C147.333 33.47 147.493 33.06 147.813 32.78C148.133 32.48 148.593 32.33 149.193 32.33H153.903C154.503 32.33 154.953 32.49 155.253 32.81C155.573 33.13 155.733 33.59 155.733 34.19V41.15C155.733 41.67 155.633 42.11 155.433 42.47C155.233 42.83 154.893 43.09 154.413 43.25C153.513 43.57 152.503 43.83 151.383 44.03C150.263 44.23 149.153 44.33 148.053 44.33Z" fill="#DABE8E"/>
<path d="M426.77 41.27C425.49 41.27 424.36 40.97 423.38 40.37C422.42 39.75 421.67 38.87 421.13 37.73C420.59 36.57 420.32 35.22 420.32 33.68C420.32 32.12 420.58 30.78 421.1 29.66C421.64 28.52 422.39 27.65 423.35 27.05C424.33 26.43 425.47 26.12 426.77 26.12C428.07 26.12 429.19 26.45 430.13 27.11C431.07 27.75 431.7 28.61 432.02 29.69H431.69V21.02C431.69 20.56 431.8 20.22 432.02 20C432.26 19.76 432.6 19.64 433.04 19.64C433.48 19.64 433.82 19.76 434.06 20C434.3 20.22 434.42 20.56 434.42 21.02V39.8C434.42 40.26 434.3 40.61 434.06 40.85C433.82 41.09 433.48 41.21 433.04 41.21C432.62 41.21 432.29 41.09 432.05 40.85C431.81 40.61 431.69 40.26 431.69 39.8V37.07L432.02 37.61C431.72 38.73 431.09 39.62 430.13 40.28C429.19 40.94 428.07 41.27 426.77 41.27ZM427.4 39.11C428.28 39.11 429.04 38.9 429.68 38.48C430.34 38.06 430.84 37.45 431.18 36.65C431.54 35.85 431.72 34.86 431.72 33.68C431.72 31.92 431.33 30.58 430.55 29.66C429.77 28.74 428.72 28.28 427.4 28.28C426.54 28.28 425.78 28.49 425.12 28.91C424.48 29.31 423.98 29.91 423.62 30.71C423.26 31.51 423.08 32.5 423.08 33.68C423.08 35.44 423.47 36.79 424.25 37.73C425.05 38.65 426.1 39.11 427.4 39.11ZM440.147 41.15C439.727 41.15 439.397 41.02 439.157 40.76C438.917 40.5 438.797 40.14 438.797 39.68V27.71C438.797 27.23 438.917 26.87 439.157 26.63C439.397 26.37 439.727 26.24 440.147 26.24C440.587 26.24 440.927 26.37 441.167 26.63C441.407 26.87 441.527 27.23 441.527 27.71V39.68C441.527 40.14 441.407 40.5 441.167 40.76C440.947 41.02 440.607 41.15 440.147 41.15ZM440.147 23C439.607 23 439.177 22.86 438.857 22.58C438.557 22.28 438.407 21.89 438.407 21.41C438.407 20.89 438.557 20.5 438.857 20.24C439.177 19.96 439.607 19.82 440.147 19.82C440.727 19.82 441.157 19.96 441.437 20.24C441.737 20.5 441.887 20.89 441.887 21.41C441.887 21.89 441.737 22.28 441.437 22.58C441.157 22.86 440.727 23 440.147 23ZM452.487 46.67C451.407 46.67 450.357 46.55 449.337 46.31C448.337 46.07 447.427 45.7 446.607 45.2C446.347 45.04 446.167 44.85 446.067 44.63C445.987 44.43 445.967 44.22 446.007 44C446.067 43.78 446.167 43.58 446.307 43.4C446.467 43.24 446.647 43.13 446.847 43.07C447.067 43.03 447.287 43.08 447.507 43.22C448.387 43.72 449.227 44.06 450.027 44.24C450.827 44.42 451.587 44.51 452.307 44.51C453.727 44.51 454.787 44.14 455.487 43.4C456.207 42.68 456.567 41.62 456.567 40.22V36.98H456.837C456.557 38.1 455.927 38.99 454.947 39.65C453.987 40.31 452.867 40.64 451.587 40.64C450.267 40.64 449.117 40.34 448.137 39.74C447.157 39.12 446.397 38.27 445.857 37.19C445.317 36.09 445.047 34.82 445.047 33.38C445.047 32.28 445.197 31.29 445.497 30.41C445.817 29.51 446.257 28.75 446.817 28.13C447.397 27.49 448.087 27 448.887 26.66C449.687 26.3 450.587 26.12 451.587 26.12C452.887 26.12 454.017 26.45 454.977 27.11C455.937 27.77 456.557 28.66 456.837 29.78L456.507 30.2V27.56C456.507 27.1 456.627 26.76 456.867 26.54C457.107 26.3 457.447 26.18 457.887 26.18C458.307 26.18 458.637 26.3 458.877 26.54C459.117 26.76 459.237 27.1 459.237 27.56V39.86C459.237 42.12 458.657 43.82 457.497 44.96C456.357 46.1 454.687 46.67 452.487 46.67ZM452.187 38.48C453.087 38.48 453.857 38.28 454.497 37.88C455.157 37.46 455.657 36.87 455.997 36.11C456.357 35.33 456.537 34.42 456.537 33.38C456.537 31.8 456.147 30.56 455.367 29.66C454.587 28.74 453.527 28.28 452.187 28.28C451.287 28.28 450.507 28.49 449.847 28.91C449.207 29.31 448.707 29.89 448.347 30.65C447.987 31.41 447.807 32.32 447.807 33.38C447.807 34.94 448.197 36.18 448.977 37.1C449.777 38.02 450.847 38.48 452.187 38.48ZM464.962 41.15C464.542 41.15 464.212 41.02 463.972 40.76C463.732 40.5 463.612 40.14 463.612 39.68V27.71C463.612 27.23 463.732 26.87 463.972 26.63C464.212 26.37 464.542 26.24 464.962 26.24C465.402 26.24 465.742 26.37 465.982 26.63C466.222 26.87 466.342 27.23 466.342 27.71V39.68C466.342 40.14 466.222 40.5 465.982 40.76C465.762 41.02 465.422 41.15 464.962 41.15ZM464.962 23C464.422 23 463.992 22.86 463.672 22.58C463.372 22.28 463.222 21.89 463.222 21.41C463.222 20.89 463.372 20.5 463.672 20.24C463.992 19.96 464.422 19.82 464.962 19.82C465.542 19.82 465.972 19.96 466.252 20.24C466.552 20.5 466.702 20.89 466.702 21.41C466.702 21.89 466.552 22.28 466.252 22.58C465.972 22.86 465.542 23 464.962 23ZM476.791 41.27C475.611 41.27 474.621 41.06 473.821 40.64C473.041 40.22 472.451 39.61 472.051 38.81C471.671 38.01 471.481 37.03 471.481 35.87V28.49H469.561C469.201 28.49 468.921 28.4 468.721 28.22C468.521 28.02 468.421 27.76 468.421 27.44C468.421 27.1 468.521 26.84 468.721 26.66C468.921 26.48 469.201 26.39 469.561 26.39H471.481V23.12C471.481 22.66 471.601 22.32 471.841 22.1C472.081 21.86 472.421 21.74 472.861 21.74C473.301 21.74 473.631 21.86 473.851 22.1C474.091 22.32 474.211 22.66 474.211 23.12V26.39H477.841C478.221 26.39 478.511 26.48 478.711 26.66C478.911 26.84 479.011 27.1 479.011 27.44C479.011 27.76 478.911 28.02 478.711 28.22C478.511 28.4 478.221 28.49 477.841 28.49H474.211V35.63C474.211 36.73 474.441 37.56 474.901 38.12C475.361 38.68 476.121 38.96 477.181 38.96C477.561 38.96 477.881 38.93 478.141 38.87C478.401 38.79 478.631 38.75 478.831 38.75C479.011 38.73 479.161 38.79 479.281 38.93C479.421 39.07 479.491 39.33 479.491 39.71C479.491 39.99 479.441 40.25 479.341 40.49C479.261 40.71 479.091 40.86 478.831 40.94C478.591 41.02 478.271 41.09 477.871 41.15C477.471 41.23 477.111 41.27 476.791 41.27ZM486.133 41.27C485.133 41.27 484.223 41.07 483.403 40.67C482.603 40.27 481.973 39.73 481.513 39.05C481.073 38.37 480.853 37.61 480.853 36.77C480.853 35.69 481.123 34.84 481.663 34.22C482.203 33.6 483.113 33.16 484.393 32.9C485.673 32.62 487.393 32.48 489.553 32.48H490.963V34.22H489.613C488.073 34.22 486.853 34.29 485.953 34.43C485.073 34.57 484.453 34.82 484.093 35.18C483.733 35.52 483.553 36 483.553 36.62C483.553 37.4 483.823 38.04 484.363 38.54C484.923 39.04 485.683 39.29 486.643 39.29C487.403 39.29 488.073 39.11 488.653 38.75C489.233 38.37 489.693 37.87 490.033 37.25C490.373 36.61 490.543 35.88 490.543 35.06V31.61C490.543 30.43 490.303 29.58 489.823 29.06C489.343 28.52 488.533 28.25 487.393 28.25C486.733 28.25 486.053 28.34 485.353 28.52C484.653 28.7 483.923 28.98 483.163 29.36C482.863 29.5 482.603 29.55 482.383 29.51C482.163 29.45 481.983 29.33 481.843 29.15C481.723 28.95 481.653 28.74 481.633 28.52C481.633 28.28 481.683 28.05 481.783 27.83C481.903 27.61 482.103 27.45 482.383 27.35C483.263 26.91 484.133 26.6 484.993 26.42C485.873 26.22 486.693 26.12 487.453 26.12C488.753 26.12 489.823 26.33 490.663 26.75C491.503 27.15 492.133 27.78 492.553 28.64C492.973 29.48 493.183 30.56 493.183 31.88V39.8C493.183 40.26 493.073 40.61 492.853 40.85C492.633 41.09 492.313 41.21 491.893 41.21C491.493 41.21 491.173 41.09 490.933 40.85C490.713 40.61 490.603 40.26 490.603 39.8V37.67H490.873C490.713 38.41 490.413 39.05 489.973 39.59C489.533 40.13 488.983 40.55 488.323 40.85C487.683 41.13 486.953 41.27 486.133 41.27ZM502.069 41.27C500.569 41.27 499.429 40.83 498.649 39.95C497.869 39.05 497.479 37.76 497.479 36.08V21.02C497.479 20.56 497.599 20.22 497.839 20C498.079 19.76 498.409 19.64 498.829 19.64C499.269 19.64 499.609 19.76 499.849 20C500.089 20.22 500.209 20.56 500.209 21.02V35.87C500.209 36.91 500.419 37.69 500.839 38.21C501.279 38.71 501.899 38.96 502.699 38.96C502.879 38.96 503.039 38.96 503.179 38.96C503.319 38.94 503.459 38.92 503.599 38.9C503.819 38.88 503.979 38.94 504.079 39.08C504.179 39.22 504.229 39.5 504.229 39.92C504.229 40.3 504.139 40.6 503.959 40.82C503.799 41.02 503.529 41.15 503.149 41.21C502.969 41.23 502.789 41.24 502.609 41.24C502.429 41.26 502.249 41.27 502.069 41.27Z" fill="#DABE8E"/>
<rect x="97" y="238" width="19" height="47" fill="#050505"/>
<rect x="148" y="238" width="19" height="47" fill="#050505"/>
<rect x="199" y="238" width="19" height="47" fill="#050505"/>
<rect x="250" y="238" width="19" height="47" fill="#050505"/>
<rect x="301" y="238" width="19" height="47" fill="#050505"/>
<rect x="352" y="238" width="19" height="47" fill="#050505"/>
<rect x="403" y="238" width="19" height="47" fill="#050505"/>
<rect x="454" y="238" width="19" height="47" fill="#050505"/>
</svg>
