<svg width="576" height="350" viewBox="0 0 576 350" fill="none" xmlns="http://www.w3.org/2000/svg">
<rect width="576" height="350" rx="18" fill="#DABE8E"/>
<path d="M0 18C0 8.05887 8.05887 0 18 0H310V350H18C8.05888 350 0 341.941 0 332V18Z" fill="#111113"/>
<path d="M0 264C0 254.059 8.05887 246 18 246H576V332C576 341.941 567.941 350 558 350H18C8.05887 350 0 341.941 0 332V264Z" fill="#111113"/>
<circle cx="557.823" cy="14.9607" r="3.03454" transform="rotate(22.3576 557.823 14.9607)" fill="#454545"/>
<circle cx="17.552" cy="18.466" r="3.03454" transform="rotate(-10.8613 17.552 18.466)" fill="#454545"/>
<circle cx="25.7937" cy="217.565" r="3.03454" transform="rotate(38.3488 25.7937 217.565)" fill="#454545"/>
<circle cx="553.056" cy="223.034" r="3.03454" transform="rotate(-22.5384 553.056 223.034)" fill="#454545"/>
<path d="M35.47 166.27C34.71 166.27 34.13 166.06 33.73 165.64C33.33 165.22 33.13 164.63 33.13 163.87V146.95C33.13 146.19 33.33 145.61 33.73 145.21C34.13 144.79 34.71 144.58 35.47 144.58C36.21 144.58 36.78 144.79 37.18 145.21C37.58 145.61 37.78 146.19 37.78 146.95V154.06H37.84L45.82 145.72C46.16 145.36 46.51 145.09 46.87 144.91C47.25 144.71 47.68 144.61 48.16 144.61C48.86 144.61 49.36 144.79 49.66 145.15C49.98 145.51 50.12 145.93 50.08 146.41C50.04 146.89 49.82 147.34 49.42 147.76L41.41 155.95L41.44 153.94L49.84 162.91C50.3 163.41 50.53 163.92 50.53 164.44C50.55 164.96 50.38 165.4 50.02 165.76C49.68 166.1 49.17 166.27 48.49 166.27C47.91 166.27 47.44 166.15 47.08 165.91C46.74 165.67 46.36 165.32 45.94 164.86L37.84 156.34H37.78V163.87C37.78 164.63 37.58 165.22 37.18 165.64C36.8 166.06 36.23 166.27 35.47 166.27ZM62.774 166.33C60.694 166.33 58.864 165.88 57.284 164.98C55.724 164.06 54.504 162.78 53.624 161.14C52.764 159.5 52.334 157.59 52.334 155.41C52.334 153.75 52.574 152.26 53.054 150.94C53.554 149.6 54.264 148.46 55.184 147.52C56.104 146.56 57.204 145.82 58.484 145.3C59.784 144.78 61.214 144.52 62.774 144.52C64.894 144.52 66.734 144.97 68.294 145.87C69.854 146.77 71.064 148.04 71.924 149.68C72.804 151.3 73.244 153.2 73.244 155.38C73.244 157.04 72.994 158.54 72.494 159.88C71.994 161.22 71.284 162.37 70.364 163.33C69.444 164.29 68.344 165.03 67.064 165.55C65.784 166.07 64.354 166.33 62.774 166.33ZM62.774 162.37C63.954 162.37 64.954 162.1 65.774 161.56C66.614 161 67.254 160.2 67.694 159.16C68.154 158.1 68.384 156.85 68.384 155.41C68.384 153.21 67.894 151.51 66.914 150.31C65.934 149.09 64.554 148.48 62.774 148.48C61.614 148.48 60.614 148.75 59.774 149.29C58.934 149.83 58.294 150.62 57.854 151.66C57.414 152.7 57.194 153.95 57.194 155.41C57.194 157.59 57.684 159.3 58.664 160.54C59.644 161.76 61.014 162.37 62.774 162.37ZM79.1809 166.27C78.4209 166.27 77.8409 166.06 77.4409 165.64C77.0409 165.22 76.8409 164.63 76.8409 163.87V147.22C76.8409 146.44 77.0409 145.85 77.4409 145.45C77.8609 145.05 78.4509 144.85 79.2109 144.85H86.5009C88.8609 144.85 90.6809 145.42 91.9609 146.56C93.2409 147.7 93.8809 149.29 93.8809 151.33C93.8809 152.65 93.5909 153.79 93.0109 154.75C92.4309 155.71 91.5909 156.45 90.4909 156.97C89.4109 157.49 88.0809 157.75 86.5009 157.75L86.7409 157.24H87.9709C88.8109 157.24 89.5409 157.45 90.1609 157.87C90.8009 158.27 91.3509 158.89 91.8109 159.73L93.6709 163.18C93.9509 163.68 94.0809 164.17 94.0609 164.65C94.0409 165.13 93.8609 165.52 93.5209 165.82C93.1809 166.12 92.6809 166.27 92.0209 166.27C91.3609 166.27 90.8209 166.13 90.4009 165.85C90.0009 165.57 89.6409 165.14 89.3209 164.56L86.4409 159.25C86.1409 158.69 85.7709 158.31 85.3309 158.11C84.9109 157.91 84.3909 157.81 83.7709 157.81H81.4909V163.87C81.4909 164.63 81.2909 165.22 80.8909 165.64C80.5109 166.06 79.9409 166.27 79.1809 166.27ZM81.4909 154.45H85.6609C86.9009 154.45 87.8309 154.2 88.4509 153.7C89.0909 153.2 89.4109 152.45 89.4109 151.45C89.4109 150.47 89.0909 149.73 88.4509 149.23C87.8309 148.73 86.9009 148.48 85.6609 148.48H81.4909V154.45ZM108.053 166.33C105.673 166.33 103.653 165.88 101.993 164.98C100.353 164.08 99.1031 162.82 98.2431 161.2C97.3831 159.58 96.9531 157.68 96.9531 155.5C96.9531 153.82 97.2031 152.31 97.7031 150.97C98.2231 149.61 98.9631 148.46 99.9231 147.52C100.903 146.56 102.083 145.82 103.463 145.3C104.863 144.78 106.443 144.52 108.203 144.52C109.283 144.52 110.363 144.64 111.443 144.88C112.523 145.12 113.563 145.52 114.563 146.08C114.983 146.32 115.263 146.63 115.403 147.01C115.563 147.37 115.603 147.76 115.523 148.18C115.463 148.58 115.303 148.94 115.043 149.26C114.803 149.56 114.483 149.76 114.083 149.86C113.703 149.94 113.263 149.86 112.763 149.62C112.103 149.26 111.403 149 110.663 148.84C109.923 148.66 109.113 148.57 108.233 148.57C106.813 148.57 105.623 148.84 104.663 149.38C103.703 149.9 102.983 150.68 102.503 151.72C102.043 152.74 101.813 154 101.813 155.5C101.813 157.76 102.353 159.47 103.433 160.63C104.533 161.79 106.153 162.37 108.293 162.37C109.013 162.37 109.753 162.3 110.513 162.16C111.273 162.02 112.023 161.82 112.763 161.56L111.893 163.45V157.69H109.193C108.593 157.69 108.133 157.54 107.813 157.24C107.493 156.94 107.333 156.53 107.333 156.01C107.333 155.47 107.493 155.06 107.813 154.78C108.133 154.48 108.593 154.33 109.193 154.33H113.903C114.503 154.33 114.953 154.49 115.253 154.81C115.573 155.13 115.733 155.59 115.733 156.19V163.15C115.733 163.67 115.633 164.11 115.433 164.47C115.233 164.83 114.893 165.09 114.413 165.25C113.513 165.57 112.503 165.83 111.383 166.03C110.263 166.23 109.153 166.33 108.053 166.33Z" fill="#DABE8E"/>
<path d="M430.656 164.154C430.348 164.154 430.099 164.088 429.908 163.956C429.717 163.809 429.556 163.589 429.424 163.296L423.462 149.678C423.345 149.399 423.308 149.165 423.352 148.974C423.411 148.769 423.521 148.615 423.682 148.512C423.858 148.395 424.063 148.336 424.298 148.336C424.606 148.336 424.833 148.402 424.98 148.534C425.141 148.666 425.281 148.864 425.398 149.128L431.074 162.306H430.304L435.958 149.128C436.075 148.864 436.215 148.666 436.376 148.534C436.537 148.402 436.765 148.336 437.058 148.336C437.293 148.336 437.483 148.395 437.63 148.512C437.791 148.629 437.887 148.791 437.916 148.996C437.96 149.187 437.931 149.414 437.828 149.678L431.844 163.296C431.727 163.589 431.573 163.809 431.382 163.956C431.206 164.088 430.964 164.154 430.656 164.154ZM443.125 164.198C442.069 164.198 441.152 163.971 440.375 163.516C439.598 163.061 438.996 162.416 438.571 161.58C438.146 160.744 437.933 159.761 437.933 158.632C437.933 157.781 438.05 157.019 438.285 156.344C438.534 155.655 438.886 155.068 439.341 154.584C439.796 154.1 440.338 153.733 440.969 153.484C441.614 153.22 442.333 153.088 443.125 153.088C444.181 153.088 445.098 153.315 445.875 153.77C446.652 154.225 447.254 154.87 447.679 155.706C448.104 156.527 448.317 157.503 448.317 158.632C448.317 159.483 448.192 160.253 447.943 160.942C447.708 161.631 447.364 162.218 446.909 162.702C446.454 163.186 445.904 163.56 445.259 163.824C444.628 164.073 443.917 164.198 443.125 164.198ZM443.125 162.614C443.77 162.614 444.328 162.46 444.797 162.152C445.281 161.844 445.648 161.397 445.897 160.81C446.161 160.223 446.293 159.497 446.293 158.632C446.293 157.341 446.007 156.359 445.435 155.684C444.863 155.009 444.093 154.672 443.125 154.672C442.494 154.672 441.937 154.826 441.453 155.134C440.984 155.427 440.617 155.867 440.353 156.454C440.089 157.041 439.957 157.767 439.957 158.632C439.957 159.923 440.243 160.913 440.815 161.602C441.402 162.277 442.172 162.614 443.125 162.614ZM454.247 164.198C453.147 164.198 452.311 163.875 451.739 163.23C451.167 162.57 450.881 161.624 450.881 160.392V149.348C450.881 149.011 450.969 148.761 451.145 148.6C451.321 148.424 451.563 148.336 451.871 148.336C452.194 148.336 452.443 148.424 452.619 148.6C452.795 148.761 452.883 149.011 452.883 149.348V160.238C452.883 161.001 453.037 161.573 453.345 161.954C453.668 162.321 454.123 162.504 454.709 162.504C454.841 162.504 454.959 162.504 455.061 162.504C455.164 162.489 455.267 162.475 455.369 162.46C455.531 162.445 455.648 162.489 455.721 162.592C455.795 162.695 455.831 162.9 455.831 163.208C455.831 163.487 455.765 163.707 455.633 163.868C455.516 164.015 455.318 164.11 455.039 164.154C454.907 164.169 454.775 164.176 454.643 164.176C454.511 164.191 454.379 164.198 454.247 164.198ZM462.033 164.198C460.948 164.198 460.009 163.971 459.217 163.516C458.425 163.047 457.816 162.394 457.391 161.558C456.966 160.707 456.753 159.71 456.753 158.566C456.753 157.715 456.87 156.953 457.105 156.278C457.354 155.603 457.706 155.031 458.161 154.562C458.616 154.078 459.166 153.711 459.811 153.462C460.471 153.213 461.212 153.088 462.033 153.088C462.546 153.088 463.089 153.169 463.661 153.33C464.233 153.491 464.761 153.755 465.245 154.122C465.406 154.239 465.509 154.379 465.553 154.54C465.597 154.687 465.597 154.841 465.553 155.002C465.524 155.163 465.45 155.303 465.333 155.42C465.23 155.523 465.091 155.581 464.915 155.596C464.754 155.611 464.578 155.559 464.387 155.442C464.035 155.178 463.661 154.987 463.265 154.87C462.884 154.753 462.517 154.694 462.165 154.694C461.622 154.694 461.138 154.782 460.713 154.958C460.302 155.134 459.95 155.391 459.657 155.728C459.378 156.051 459.166 156.454 459.019 156.938C458.872 157.407 458.799 157.957 458.799 158.588C458.799 159.835 459.092 160.817 459.679 161.536C460.266 162.24 461.094 162.592 462.165 162.592C462.517 162.592 462.884 162.541 463.265 162.438C463.646 162.321 464.02 162.13 464.387 161.866C464.578 161.749 464.754 161.705 464.915 161.734C465.076 161.749 465.208 161.815 465.311 161.932C465.428 162.035 465.502 162.167 465.531 162.328C465.56 162.475 465.546 162.629 465.487 162.79C465.443 162.951 465.34 163.083 465.179 163.186C464.71 163.538 464.196 163.795 463.639 163.956C463.082 164.117 462.546 164.198 462.033 164.198ZM470.942 164.198C470.208 164.198 469.541 164.051 468.94 163.758C468.353 163.465 467.891 163.069 467.554 162.57C467.231 162.071 467.07 161.514 467.07 160.898C467.07 160.106 467.268 159.483 467.664 159.028C468.06 158.573 468.727 158.251 469.666 158.06C470.604 157.855 471.866 157.752 473.45 157.752H474.484V159.028H473.494C472.364 159.028 471.47 159.079 470.81 159.182C470.164 159.285 469.71 159.468 469.446 159.732C469.182 159.981 469.05 160.333 469.05 160.788C469.05 161.36 469.248 161.829 469.644 162.196C470.054 162.563 470.612 162.746 471.316 162.746C471.873 162.746 472.364 162.614 472.79 162.35C473.215 162.071 473.552 161.705 473.802 161.25C474.051 160.781 474.176 160.245 474.176 159.644V157.114C474.176 156.249 474 155.625 473.648 155.244C473.296 154.848 472.702 154.65 471.866 154.65C471.382 154.65 470.883 154.716 470.37 154.848C469.856 154.98 469.321 155.185 468.764 155.464C468.544 155.567 468.353 155.603 468.192 155.574C468.03 155.53 467.898 155.442 467.796 155.31C467.708 155.163 467.656 155.009 467.642 154.848C467.642 154.672 467.678 154.503 467.752 154.342C467.84 154.181 467.986 154.063 468.192 153.99C468.837 153.667 469.475 153.44 470.106 153.308C470.751 153.161 471.352 153.088 471.91 153.088C472.863 153.088 473.648 153.242 474.264 153.55C474.88 153.843 475.342 154.305 475.65 154.936C475.958 155.552 476.112 156.344 476.112 157.312V163.12C476.112 163.457 476.031 163.714 475.87 163.89C475.708 164.066 475.474 164.154 475.166 164.154C474.872 164.154 474.638 164.066 474.462 163.89C474.3 163.714 474.22 163.457 474.22 163.12V161.558H474.418C474.3 162.101 474.08 162.57 473.758 162.966C473.435 163.362 473.032 163.67 472.548 163.89C472.078 164.095 471.543 164.198 470.942 164.198ZM486.363 164C486.011 164 485.739 163.905 485.549 163.714C485.358 163.523 485.263 163.252 485.263 162.9V149.59C485.263 149.238 485.358 148.967 485.549 148.776C485.739 148.585 486.011 148.49 486.363 148.49H490.609C493.146 148.49 495.097 149.157 496.461 150.492C497.839 151.812 498.529 153.726 498.529 156.234C498.529 157.481 498.353 158.588 498.001 159.556C497.649 160.524 497.135 161.338 496.461 161.998C495.786 162.643 494.957 163.142 493.975 163.494C493.007 163.831 491.885 164 490.609 164H486.363ZM487.309 162.262H490.477C491.474 162.262 492.339 162.137 493.073 161.888C493.806 161.639 494.415 161.265 494.899 160.766C495.397 160.267 495.771 159.644 496.021 158.896C496.27 158.133 496.395 157.246 496.395 156.234C496.395 154.225 495.896 152.721 494.899 151.724C493.916 150.727 492.442 150.228 490.477 150.228H487.309V162.262ZM502.468 164.154C502.131 164.154 501.874 164.066 501.698 163.89C501.522 163.714 501.434 163.457 501.434 163.12V154.144C501.434 153.807 501.522 153.557 501.698 153.396C501.874 153.22 502.116 153.132 502.424 153.132C502.732 153.132 502.967 153.22 503.128 153.396C503.304 153.557 503.392 153.807 503.392 154.144V155.838H503.172C503.407 154.958 503.847 154.291 504.492 153.836C505.137 153.381 505.951 153.125 506.934 153.066C507.169 153.051 507.359 153.11 507.506 153.242C507.653 153.359 507.733 153.565 507.748 153.858C507.763 154.137 507.697 154.364 507.55 154.54C507.403 154.701 507.176 154.797 506.868 154.826L506.472 154.848C505.504 154.951 504.756 155.266 504.228 155.794C503.715 156.322 503.458 157.048 503.458 157.972V163.12C503.458 163.457 503.37 163.714 503.194 163.89C503.033 164.066 502.791 164.154 502.468 164.154ZM513.297 164.198C512.432 164.198 511.706 164.037 511.119 163.714C510.547 163.391 510.122 162.915 509.843 162.284C509.565 161.653 509.425 160.861 509.425 159.908V154.144C509.425 153.807 509.506 153.557 509.667 153.396C509.843 153.22 510.093 153.132 510.415 153.132C510.738 153.132 510.987 153.22 511.163 153.396C511.339 153.557 511.427 153.807 511.427 154.144V159.908C511.427 160.817 511.611 161.492 511.977 161.932C512.344 162.357 512.923 162.57 513.715 162.57C514.595 162.57 515.307 162.277 515.849 161.69C516.407 161.103 516.685 160.326 516.685 159.358V154.144C516.685 153.807 516.766 153.557 516.927 153.396C517.103 153.22 517.353 153.132 517.675 153.132C517.998 153.132 518.247 153.22 518.423 153.396C518.599 153.557 518.687 153.807 518.687 154.144V163.12C518.687 163.809 518.365 164.154 517.719 164.154C517.397 164.154 517.147 164.066 516.971 163.89C516.81 163.714 516.729 163.457 516.729 163.12V161.206L517.015 161.58C516.722 162.431 516.245 163.083 515.585 163.538C514.94 163.978 514.177 164.198 513.297 164.198ZM522.943 164.154C522.635 164.154 522.393 164.066 522.217 163.89C522.041 163.714 521.953 163.457 521.953 163.12V154.144C521.953 153.807 522.041 153.557 522.217 153.396C522.393 153.22 522.635 153.132 522.943 153.132C523.251 153.132 523.485 153.22 523.647 153.396C523.823 153.557 523.911 153.807 523.911 154.144V156.014L523.669 155.618C523.947 154.811 524.395 154.188 525.011 153.748C525.641 153.308 526.389 153.088 527.255 153.088C528.164 153.088 528.897 153.308 529.455 153.748C530.012 154.173 530.386 154.826 530.577 155.706H530.269C530.533 154.899 531.002 154.261 531.677 153.792C532.366 153.323 533.165 153.088 534.075 153.088C534.881 153.088 535.541 153.249 536.055 153.572C536.583 153.88 536.979 154.349 537.243 154.98C537.507 155.596 537.639 156.388 537.639 157.356V163.12C537.639 163.457 537.551 163.714 537.375 163.89C537.199 164.066 536.957 164.154 536.649 164.154C536.326 164.154 536.077 164.066 535.901 163.89C535.725 163.714 535.637 163.457 535.637 163.12V157.444C535.637 156.505 535.475 155.816 535.153 155.376C534.83 154.936 534.287 154.716 533.525 154.716C532.689 154.716 532.021 155.009 531.523 155.596C531.039 156.168 530.797 156.96 530.797 157.972V163.12C530.797 163.457 530.709 163.714 530.533 163.89C530.371 164.066 530.129 164.154 529.807 164.154C529.484 164.154 529.235 164.066 529.059 163.89C528.883 163.714 528.795 163.457 528.795 163.12V157.444C528.795 156.505 528.633 155.816 528.311 155.376C527.988 154.936 527.445 154.716 526.683 154.716C525.847 154.716 525.179 155.009 524.681 155.596C524.197 156.168 523.955 156.96 523.955 157.972V163.12C523.955 163.809 523.617 164.154 522.943 164.154Z" fill="#111113"/>
<rect x="10" y="252" width="557" height="88" rx="18" fill="#696969"/>
<rect x="15" y="261.026" width="30.7661" height="68.8205" rx="14" fill="#111113"/>
<rect x="49.2822" y="261.026" width="30.7661" height="68.8205" rx="14" fill="#9C9C9C"/>
<rect x="83.5645" y="261.026" width="30.7661" height="68.8205" rx="14" fill="#9C9C9C"/>
<rect x="117.847" y="261.026" width="30.7661" height="68.8205" rx="14" fill="#9C9C9C"/>
<rect x="152.129" y="261.026" width="30.7661" height="68.8205" rx="14" fill="#111113"/>
<rect x="186.411" y="261.026" width="30.7661" height="68.8205" rx="14" fill="#9C9C9C"/>
<rect x="220.694" y="261.026" width="30.7661" height="68.8205" rx="14" fill="#9C9C9C"/>
<rect x="254.976" y="261.026" width="30.7661" height="68.8205" rx="14" fill="#9C9C9C"/>
<rect x="289.258" y="261.026" width="30.7661" height="68.8205" rx="14" fill="#111113"/>
<rect x="323.541" y="261.026" width="30.7661" height="68.8205" rx="14" fill="#9C9C9C"/>
<rect x="357.823" y="261.026" width="30.7661" height="68.8205" rx="14" fill="#9C9C9C"/>
<rect x="392.105" y="261.026" width="30.7661" height="68.8205" rx="14" fill="#9C9C9C"/>
<rect x="426.387" y="261.026" width="30.7661" height="68.8205" rx="14" fill="#111113"/>
<rect x="460.669" y="261.026" width="30.7661" height="68.8205" rx="14" fill="#9C9C9C"/>
<rect x="529.234" y="261.026" width="30.7661" height="68.8205" rx="14" fill="#9C9C9C"/>
<rect x="494.952" y="261.026" width="30.7661" height="68.8205" rx="14" fill="#9C9C9C"/>
<rect x="130" y="14" width="143" height="79" rx="18" fill="#232323"/>
<path d="M345 50.5005C345 65.6887 357.313 78.001 372.5 78.001C387.687 78.001 400 65.6887 400 50.5005C400 35.3132 387.688 23 372.5 23C357.313 23 345 35.3132 345 50.5005Z" fill="black" stroke="black"/>
<path d="M372.415 25.6321C358.499 25.6321 347.217 36.9142 347.217 50.8295C347.217 62.9941 355.839 73.1453 367.304 75.5068C367.65 72.9901 369.803 71.0492 372.415 71.0492C375.025 71.0492 377.179 72.9908 377.524 75.5076C388.99 73.1453 397.612 62.9941 397.612 50.8295C397.612 36.9142 386.331 25.6321 372.415 25.6321Z" fill="#252525" stroke="black"/>
<path d="M353.364 55.5186C354.326 57.1853 356.457 57.7556 358.124 56.7935C359.79 55.8312 360.361 53.7007 359.399 52.0342C358.438 50.3686 356.307 49.7971 354.64 50.7594C352.973 51.7217 352.402 53.8531 353.364 55.5186Z" fill="black" stroke="black"/>
<path d="M362.724 42.3875C363.686 40.7208 363.115 38.5902 361.448 37.6282C359.781 36.6658 357.651 37.2368 356.689 38.9032C355.727 40.5688 356.298 42.6999 357.964 43.6623C359.631 44.6243 361.762 44.0531 362.724 42.3875Z" fill="black" stroke="black"/>
<path d="M372.476 36.7567C374.4 36.7567 375.96 35.1965 375.96 33.2725C375.96 31.3475 374.4 29.7883 372.476 29.7883C370.553 29.7883 368.992 31.3479 368.992 33.2725C368.992 35.1966 370.553 36.7567 372.476 36.7567Z" fill="black" stroke="black"/>
<path d="M391.449 55.5189C392.411 53.8523 391.84 51.7218 390.173 50.7595C388.506 49.7972 386.376 50.3681 385.414 52.0345C384.452 53.7 385.023 55.8311 386.69 56.7936C388.356 57.7557 390.487 57.1847 391.449 55.5189Z" fill="black" stroke="black"/>
<path d="M382.227 42.3871C383.19 44.0538 385.32 44.6241 386.987 43.6621C388.654 42.6997 389.224 40.5694 388.262 38.9029C387.3 37.2372 385.17 36.6657 383.503 37.628C381.837 38.5903 381.266 40.7216 382.227 42.3871Z" fill="black" stroke="black"/>
<circle cx="370.491" cy="156.322" r="13.5" transform="rotate(-180 370.491 156.322)" fill="#EDEDED" stroke="white"/>
<circle cx="399.995" cy="117.702" r="13.5" transform="rotate(-180 399.995 117.702)" fill="#EDEDED" stroke="white"/>
<circle cx="346" cy="117" r="13.5" transform="rotate(-180 346 117)" fill="#EDEDED" stroke="white"/>
<circle cx="477" cy="51" r="13.5" fill="#EDEDED" stroke="white"/>
<circle cx="437" cy="51" r="13.5" fill="#373737" stroke="white"/>
<circle cx="517" cy="51" r="13.5" fill="#373737" stroke="white"/>
<rect x="319.5" y="199.5" width="39" height="19" fill="#111113" stroke="white"/>
<rect x="84.5" y="199.5" width="39" height="19" fill="#8B8B8B" stroke="white"/>
<rect x="365.5" y="199.5" width="39" height="19" fill="#111113" stroke="white"/>
<rect x="130.5" y="199.5" width="39" height="19" fill="#8B8B8B" stroke="white"/>
<rect x="411.5" y="199.5" width="39" height="19" fill="#111113" stroke="white"/>
<rect x="176.5" y="199.5" width="39" height="19" fill="#8B8B8B" stroke="white"/>
<rect x="457.5" y="199.5" width="39" height="19" fill="#111113" stroke="white"/>
<rect x="503.5" y="199.5" width="39" height="19" fill="#111113" stroke="white"/>
</svg>
