<svg width="403" height="403" viewBox="0 0 403 403" fill="none" xmlns="http://www.w3.org/2000/svg">
<path d="M3 201.503C3 311.134 91.876 400.006 201.499 400.006C311.125 400.006 399.999 311.134 399.999 201.503C399.999 91.879 311.127 3 201.499 3C91.876 3 3 91.879 3 201.503Z" fill="black" stroke="black" stroke-width="5"/>
<path d="M200.883 22C100.435 22 19 103.436 19 203.879C19 291.685 81.234 364.958 163.996 382.004C166.488 363.838 182.034 349.828 200.886 349.828C219.724 349.828 235.272 363.843 237.761 382.01C320.526 364.958 382.76 291.685 382.76 203.879C382.758 103.436 301.33 22 200.883 22Z" fill="white" stroke="black" stroke-width="5"/>
<path d="M63.3715 237.727C70.3175 249.757 85.6985 253.874 97.7265 246.929C109.758 239.983 113.878 224.605 106.933 212.576C99.9925 200.553 84.6125 196.428 72.5795 203.374C60.5515 210.32 56.4295 225.705 63.3715 237.727Z" fill="black" stroke="black" stroke-width="5"/>
<path d="M130.931 142.94C137.877 130.91 133.752 115.531 121.724 108.587C109.692 101.64 94.3165 105.762 87.3705 117.79C80.4295 129.813 84.5465 145.195 96.5775 152.142C108.607 159.086 123.989 154.963 130.931 142.94Z" fill="black" stroke="black" stroke-width="5"/>
<path d="M201.326 102.299C215.217 102.299 226.473 91.037 226.473 77.149C226.473 63.254 215.215 52 201.326 52C187.443 52 176.18 63.257 176.18 77.149C176.181 91.038 187.443 102.299 201.326 102.299Z" fill="black" stroke="black" stroke-width="5"/>
<path d="M338.279 237.729C345.225 225.699 341.1 210.321 329.071 203.375C317.039 196.429 301.662 200.55 294.717 212.578C287.776 224.6 291.893 239.983 303.925 246.93C315.954 253.875 331.338 249.753 338.279 237.729Z" fill="black" stroke="black" stroke-width="5"/>
<path d="M271.719 142.939C278.665 154.969 294.046 159.086 306.073 152.142C318.106 145.195 322.224 129.818 315.279 117.789C308.338 105.766 292.958 101.641 280.926 108.587C268.899 115.533 264.778 130.917 271.719 142.939Z" fill="black" stroke="black" stroke-width="5"/>
<path d="M12 13L390.302 391.302" stroke="#8C2C2C" stroke-width="21"/>
<path d="M12 391.302L390.302 13" stroke="#8C2C2C" stroke-width="21"/>
</svg>
